<svg width="151" height="36" viewBox="0 0 151 36" fill="none" xmlns="http://www.w3.org/2000/svg">
<g clip-path="url(#clip0_5045_342)">
<path d="M44.0802 25.2822H54.8156V22.1212H47.8958V10.2148H44.0802V25.2822Z" fill="#9CA7AB"/>
<path d="M61.1759 23.1749C59.6454 23.1749 58.8478 21.8684 58.8478 19.9086C58.8478 17.9488 59.6454 16.6212 61.1759 16.6212C62.7065 16.6212 63.5256 17.9488 63.5256 19.9086C63.5256 21.8684 62.7065 23.1749 61.1759 23.1749ZM61.1975 25.6194C64.7544 25.6194 67.0825 23.1539 67.0825 19.9086C67.0825 16.6633 64.7544 14.1978 61.1975 14.1978C57.6621 14.1978 55.2909 16.6633 55.2909 19.9086C55.2909 23.1539 57.6621 25.6194 61.1975 25.6194Z" fill="#9CA7AB"/>
<path d="M73.2391 29.0123C74.8775 29.0123 76.3218 28.654 77.2918 27.8111C78.1757 27.0314 78.7577 25.8513 78.7577 24.2287V14.4929H75.3948V15.6519H75.3517C74.705 14.7457 73.7134 14.1768 72.2475 14.1768C69.5098 14.1768 67.6128 16.4105 67.6128 19.5715C67.6128 22.88 69.9194 24.6923 72.3984 24.6923C73.7349 24.6923 74.5757 24.1654 75.2224 23.449H75.3086V24.5237C75.3086 25.8302 74.6835 26.5889 73.196 26.5889C72.032 26.5889 71.4499 26.1042 71.2559 25.5352H67.8499C68.1948 27.79 70.1996 29.0123 73.2391 29.0123ZM73.2176 22.1424C71.9026 22.1424 71.0403 21.0888 71.0403 19.4661C71.0403 17.8224 71.9026 16.7688 73.2176 16.7688C74.6834 16.7688 75.4595 17.991 75.4595 19.4451C75.4595 20.9623 74.7481 22.1424 73.2176 22.1424Z" fill="#9CA7AB"/>
<path d="M85.6724 23.1749C84.1419 23.1749 83.3443 21.8684 83.3443 19.9086C83.3443 17.9488 84.1419 16.6212 85.6724 16.6212C87.203 16.6212 88.0221 17.9488 88.0221 19.9086C88.0221 21.8684 87.203 23.1749 85.6724 23.1749ZM85.694 25.6194C89.2509 25.6194 91.5793 23.1539 91.5793 19.9086C91.5793 16.6633 89.2509 14.1978 85.694 14.1978C82.1587 14.1978 79.7874 16.6633 79.7874 19.9086C79.7874 23.1539 82.1587 25.6194 85.694 25.6194Z" fill="#9CA7AB"/>
<path d="M92.605 25.2822H96.1188V14.4927H92.605V25.2822ZM92.605 12.9965H96.1188V10.2148H92.605V12.9965Z" fill="#9CA7AB"/>
<path d="M97.6431 28.8437H101.157V24.1654H101.2C101.89 25.0716 102.903 25.6195 104.326 25.6195C107.214 25.6195 109.133 23.3857 109.133 19.8876C109.133 16.6423 107.344 14.1768 104.412 14.1768C102.903 14.1768 101.825 14.83 101.071 15.7994H101.006V14.4929H97.6431V28.8437ZM103.42 22.9643C101.911 22.9643 101.049 21.7631 101.049 20.014C101.049 18.265 101.825 16.9373 103.356 16.9373C104.865 16.9373 105.576 18.1596 105.576 20.014C105.576 21.8474 104.757 22.9643 103.42 22.9643Z" fill="#9CA7AB"/>
<path d="M114.854 25.6195C117.743 25.6195 119.877 24.3972 119.877 22.0371C119.877 19.2765 117.592 18.7918 115.652 18.4757C114.251 18.2228 113.001 18.1174 113.001 17.3588C113.001 16.6845 113.669 16.3684 114.531 16.3684C115.501 16.3684 116.169 16.6634 116.299 17.6328H119.532C119.36 15.5044 117.678 14.1768 114.553 14.1768C111.944 14.1768 109.789 15.3569 109.789 17.6328C109.789 20.1615 111.836 20.6673 113.755 20.9834C115.221 21.2363 116.557 21.3416 116.557 22.311C116.557 23.0064 115.889 23.3857 114.833 23.3857C113.669 23.3857 112.936 22.8589 112.807 21.7842H109.487C109.595 24.1654 111.621 25.6195 114.854 25.6195Z" fill="#9CA7AB"/>
<path d="M124.649 25.5982C126.18 25.5982 127.15 25.0082 127.948 23.9545H128.012V25.2821H131.375V14.4927H127.861V20.5196C127.861 21.8051 127.128 22.6901 125.921 22.6901C124.8 22.6901 124.261 22.0369 124.261 20.8568V14.4927H120.769V21.5733C120.769 23.9756 122.106 25.5982 124.649 25.5982Z" fill="#9CA7AB"/>
<path d="M132.904 25.2823H136.418V19.2343C136.418 17.9489 137.064 17.0427 138.164 17.0427C139.22 17.0427 139.716 17.7171 139.716 18.8761V25.2823H143.23V19.2343C143.23 17.9489 143.855 17.0427 144.976 17.0427C146.032 17.0427 146.528 17.7171 146.528 18.8761V25.2823H150.042V18.265C150.042 15.8415 148.791 14.1768 146.291 14.1768C144.868 14.1768 143.682 14.7668 142.82 16.0733H142.777C142.216 14.9143 141.117 14.1768 139.673 14.1768C138.078 14.1768 137.021 14.9143 136.331 16.0312H136.267V14.4929H132.904V25.2823Z" fill="#9CA7AB"/>
<path fill-rule="evenodd" clip-rule="evenodd" d="M8.17317 3.41691C6.88814 4.29528 5.72614 5.33379 4.71741 6.50284C8.83954 6.12873 14.0765 6.73961 20.1567 9.71148C26.6494 12.8849 31.8777 12.9922 35.5163 12.3061C35.1861 11.3289 34.7704 10.3898 34.2781 9.49697C30.1129 9.92643 24.7731 9.35798 18.55 6.31633C14.5982 4.3848 11.1148 3.58913 8.17317 3.41691ZM31.845 6.11145C28.5557 2.51878 23.7755 0.257812 18.4551 0.257812C16.8927 0.257812 15.3767 0.452833 13.9315 0.819307C15.8889 1.3414 17.9682 2.10521 20.1567 3.17492C24.7129 5.40188 28.6465 6.11892 31.845 6.11145ZM36.2942 15.7361C31.8984 16.5847 25.8283 16.4104 18.55 12.8529C11.7455 9.527 6.32978 9.56888 2.67721 10.3624C2.48868 10.4033 2.30458 10.4463 2.12493 10.4911C1.64672 11.5078 1.265 12.5769 0.991105 13.6871C1.28364 13.6107 1.58592 13.5381 1.8978 13.4703C6.32901 12.5077 12.5899 12.5495 20.1567 16.248C26.9612 19.5739 32.3769 19.532 36.0295 18.7385C36.1547 18.7114 36.278 18.6833 36.3992 18.6543C36.4125 18.3775 36.4192 18.0989 36.4192 17.8188C36.4192 17.1141 36.3768 16.4192 36.2942 15.7361ZM35.8127 22.3603C31.4596 23.1043 25.5662 22.8187 18.55 19.3894C11.7455 16.0635 6.32978 16.1054 2.67721 16.8989C1.86645 17.075 1.1371 17.2895 0.493705 17.5159C0.491951 17.6166 0.491074 17.7176 0.491074 17.8188C0.491074 27.5174 8.53385 35.3797 18.4551 35.3797C26.7699 35.3797 33.7653 29.8576 35.8127 22.3603Z" fill="#9CA7AB"/>
<path fill-rule="evenodd" clip-rule="evenodd" d="M8.17317 3.41691C6.88814 4.29528 5.72614 5.33379 4.71741 6.50284C8.83954 6.12873 14.0765 6.73961 20.1567 9.71148C26.6494 12.8849 31.8777 12.9922 35.5163 12.3061C35.1861 11.3289 34.7704 10.3898 34.2781 9.49697C30.1129 9.92643 24.7731 9.35798 18.55 6.31633C14.5982 4.3848 11.1148 3.58913 8.17317 3.41691ZM31.845 6.11145C28.5557 2.51878 23.7755 0.257812 18.4551 0.257812C16.8927 0.257812 15.3767 0.452833 13.9315 0.819307C15.8889 1.3414 17.9682 2.10521 20.1567 3.17492C24.7129 5.40188 28.6465 6.11892 31.845 6.11145ZM36.2942 15.7361C31.8984 16.5847 25.8283 16.4104 18.55 12.8529C11.7455 9.527 6.32978 9.56888 2.67721 10.3624C2.48868 10.4033 2.30458 10.4463 2.12493 10.4911C1.64672 11.5078 1.265 12.5769 0.991105 13.6871C1.28364 13.6107 1.58592 13.5381 1.8978 13.4703C6.32901 12.5077 12.5899 12.5495 20.1567 16.248C26.9612 19.5739 32.3769 19.532 36.0295 18.7385C36.1547 18.7114 36.278 18.6833 36.3992 18.6543C36.4125 18.3775 36.4192 18.0989 36.4192 17.8188C36.4192 17.1141 36.3768 16.4192 36.2942 15.7361ZM35.8127 22.3603C31.4596 23.1043 25.5662 22.8187 18.55 19.3894C11.7455 16.0635 6.32978 16.1054 2.67721 16.8989C1.86645 17.075 1.1371 17.2895 0.493705 17.5159C0.491951 17.6166 0.491074 17.7176 0.491074 17.8188C0.491074 27.5174 8.53385 35.3797 18.4551 35.3797C26.7699 35.3797 33.7653 29.8576 35.8127 22.3603Z" fill="url(#paint0_linear_5045_342)"/>
</g>
<defs>
<linearGradient id="paint0_linear_5045_342" x1="18.4551" y1="0.257812" x2="18.4551" y2="35.3797" gradientUnits="userSpaceOnUse">
<stop stop-color="#E7ECEE"/>
<stop offset="1" stop-color="#9CA7AB"/>
</linearGradient>
<clipPath id="clip0_5045_342">
<rect width="150" height="36" fill="white" transform="translate(0.399963)"/>
</clipPath>
</defs>
</svg>
