<svg width="153" height="36" viewBox="0 0 153 36" fill="none" xmlns="http://www.w3.org/2000/svg">
<g clip-path="url(#clip0_5045_326)">
<path d="M45.3844 25.4218H56.1981V22.2608H49.2278V10.3545H45.3844V25.4218Z" fill="#9CA7AB"/>
<path d="M62.6049 23.3141C61.0632 23.3141 60.2598 22.0075 60.2598 20.0477C60.2598 18.0879 61.0632 16.7603 62.6049 16.7603C64.1466 16.7603 64.9718 18.0879 64.9718 20.0477C64.9718 22.0075 64.1466 23.3141 62.6049 23.3141ZM62.6266 25.7586C66.2095 25.7586 68.5546 23.293 68.5546 20.0477C68.5546 16.8025 66.2095 14.3369 62.6266 14.3369C59.0655 14.3369 56.6769 16.8025 56.6769 20.0477C56.6769 23.293 59.0655 25.7586 62.6266 25.7586Z" fill="#9CA7AB"/>
<path d="M74.7562 29.1514C76.4065 29.1514 77.8614 28.7932 78.8385 27.9503C79.7288 27.1706 80.3151 25.9905 80.3151 24.3678V14.632H76.9276V15.791H76.8842C76.2328 14.8849 75.2339 14.3159 73.7574 14.3159C70.9997 14.3159 69.0888 16.5497 69.0888 19.7107C69.0888 23.0191 71.4122 24.8314 73.9094 24.8314C75.2556 24.8314 76.1025 24.3046 76.7539 23.5881H76.8408V24.6628C76.8408 25.9694 76.2111 26.728 74.7128 26.728C73.5402 26.728 72.9539 26.2433 72.7585 25.6744H69.3276C69.6751 27.9292 71.6945 29.1514 74.7562 29.1514ZM74.7345 22.2816C73.4099 22.2816 72.5414 21.2279 72.5414 19.6053C72.5414 17.9616 73.4099 16.9079 74.7345 16.9079C76.2111 16.9079 76.9928 18.1302 76.9928 19.5842C76.9928 21.1015 76.2762 22.2816 74.7345 22.2816Z" fill="#9CA7AB"/>
<path d="M87.2803 23.3141C85.7386 23.3141 84.9352 22.0075 84.9352 20.0477C84.9352 18.0879 85.7386 16.7603 87.2803 16.7603C88.822 16.7603 89.6472 18.0879 89.6472 20.0477C89.6472 22.0075 88.822 23.3141 87.2803 23.3141ZM87.302 25.7586C90.8849 25.7586 93.2296 23.293 93.2296 20.0477C93.2296 16.8025 90.8849 14.3369 87.302 14.3369C83.7409 14.3369 81.3523 16.8025 81.3523 20.0477C81.3523 23.293 83.7409 25.7586 87.302 25.7586Z" fill="#9CA7AB"/>
<path d="M94.2637 25.4218H97.8031V14.6323H94.2637V25.4218ZM94.2637 13.1361H97.8031V10.3545H94.2637V13.1361Z" fill="#9CA7AB"/>
<path d="M99.3385 28.9828H102.878V24.3046H102.921C103.616 25.2107 104.637 25.7586 106.07 25.7586C108.98 25.7586 110.912 23.5249 110.912 20.0267C110.912 16.7815 109.11 14.3159 106.157 14.3159C104.637 14.3159 103.551 14.9692 102.791 15.9386H102.726V14.632H99.3385V28.9828ZM105.158 23.1034C103.638 23.1034 102.769 21.9023 102.769 20.1532C102.769 18.4041 103.551 17.0765 105.093 17.0765C106.613 17.0765 107.329 18.2987 107.329 20.1532C107.329 21.9866 106.504 23.1034 105.158 23.1034Z" fill="#9CA7AB"/>
<path d="M116.675 25.7586C119.584 25.7586 121.734 24.5364 121.734 22.1762C121.734 19.4156 119.432 18.9309 117.478 18.6148C116.067 18.362 114.807 18.2566 114.807 17.498C114.807 16.8236 115.48 16.5075 116.349 16.5075C117.326 16.5075 117.999 16.8026 118.13 17.7719H121.387C121.213 15.6435 119.519 14.3159 116.371 14.3159C113.743 14.3159 111.572 15.496 111.572 17.7719C111.572 20.3007 113.635 20.8065 115.567 21.1226C117.044 21.3754 118.39 21.4808 118.39 22.4502C118.39 23.1456 117.717 23.5249 116.653 23.5249C115.48 23.5249 114.742 22.9981 114.612 21.9233H111.268C111.376 24.3046 113.418 25.7586 116.675 25.7586Z" fill="#9CA7AB"/>
<path d="M126.542 25.7379C128.084 25.7379 129.061 25.1478 129.864 24.0942H129.929V25.4218H133.317V14.6323H129.777V20.6593C129.777 21.9447 129.039 22.8298 127.823 22.8298C126.694 22.8298 126.151 22.1765 126.151 20.9964V14.6323H122.633V21.7129C122.633 24.1153 123.98 25.7379 126.542 25.7379Z" fill="#9CA7AB"/>
<path d="M134.857 25.4215H138.396V19.3735C138.396 18.088 139.048 17.1819 140.155 17.1819C141.219 17.1819 141.718 17.8562 141.718 19.0152V25.4215H145.258V19.3735C145.258 18.088 145.888 17.1819 147.017 17.1819C148.081 17.1819 148.58 17.8562 148.58 19.0152V25.4215H152.12V18.4041C152.12 15.9807 150.86 14.3159 148.341 14.3159C146.908 14.3159 145.714 14.906 144.845 16.2125H144.802C144.237 15.0535 143.13 14.3159 141.675 14.3159C140.068 14.3159 139.004 15.0535 138.309 16.1704H138.244V14.632H134.857V25.4215Z" fill="#9CA7AB"/>
<path fill-rule="evenodd" clip-rule="evenodd" d="M20.2315 0.810547L23.7899 1.73589L21.12 11.4059L29.0007 3.75792L31.6057 6.28599L24.32 13.3565L35.2368 10.5178L36.1903 13.9712L26.2375 16.5593L37.1547 19.3982L36.2012 22.8516L26.3188 20.2818C26.4418 19.7637 26.5068 19.2241 26.5068 18.6698C26.5068 14.7207 23.208 11.5193 19.1388 11.5193C15.0695 11.5193 11.7708 14.7207 11.7708 18.6698C11.7708 19.2277 11.8366 19.7707 11.9611 20.2918L1.08714 17.4641L2.04063 14.0108L11.9928 16.5987L4.00128 8.84309L6.60626 6.31502L13.892 13.3856L10.9669 2.79151L14.5254 1.86617L17.2327 11.6716L20.2315 0.810547ZM24.4762 23.599C25.3599 22.698 26.004 21.5735 26.3091 20.3218L34.2405 28.019L31.6355 30.5471L24.4762 23.599ZM24.4038 23.6719C23.5093 24.5584 22.379 25.2201 21.1114 25.561L23.7166 34.9965L27.275 34.0711L24.4038 23.6719ZM19.1388 25.8202C19.774 25.8202 20.3904 25.7422 20.9785 25.5955L18.1245 35.9324L14.566 35.0071L17.1736 25.563C17.7992 25.7306 18.4582 25.8202 19.1388 25.8202ZM17.0478 25.5279C15.7996 25.17 14.6894 24.5 13.8132 23.6108L6.63617 30.576L9.24115 33.104L17.0478 25.5279ZM11.9663 20.313C12.2649 21.5454 12.8921 22.6549 13.7533 23.5497L3.00506 26.3446L2.05158 22.8912L11.9663 20.313Z" fill="#9CA7AB"/>
<path fill-rule="evenodd" clip-rule="evenodd" d="M20.2315 0.810547L23.7899 1.73589L21.12 11.4059L29.0007 3.75792L31.6057 6.28599L24.32 13.3565L35.2368 10.5178L36.1903 13.9712L26.2375 16.5593L37.1547 19.3982L36.2012 22.8516L26.3188 20.2818C26.4418 19.7637 26.5068 19.2241 26.5068 18.6698C26.5068 14.7207 23.208 11.5193 19.1388 11.5193C15.0695 11.5193 11.7708 14.7207 11.7708 18.6698C11.7708 19.2277 11.8366 19.7707 11.9611 20.2918L1.08714 17.4641L2.04063 14.0108L11.9928 16.5987L4.00128 8.84309L6.60626 6.31502L13.892 13.3856L10.9669 2.79151L14.5254 1.86617L17.2327 11.6716L20.2315 0.810547ZM24.4762 23.599C25.3599 22.698 26.004 21.5735 26.3091 20.3218L34.2405 28.019L31.6355 30.5471L24.4762 23.599ZM24.4038 23.6719C23.5093 24.5584 22.379 25.2201 21.1114 25.561L23.7166 34.9965L27.275 34.0711L24.4038 23.6719ZM19.1388 25.8202C19.774 25.8202 20.3904 25.7422 20.9785 25.5955L18.1245 35.9324L14.566 35.0071L17.1736 25.563C17.7992 25.7306 18.4582 25.8202 19.1388 25.8202ZM17.0478 25.5279C15.7996 25.17 14.6894 24.5 13.8132 23.6108L6.63617 30.576L9.24115 33.104L17.0478 25.5279ZM11.9663 20.313C12.2649 21.5454 12.8921 22.6549 13.7533 23.5497L3.00506 26.3446L2.05158 22.8912L11.9663 20.313Z" fill="url(#paint0_linear_5045_326)"/>
</g>
<defs>
<linearGradient id="paint0_linear_5045_326" x1="19.1209" y1="0.810547" x2="19.1209" y2="35.9324" gradientUnits="userSpaceOnUse">
<stop stop-color="#E7ECEE"/>
<stop offset="1" stop-color="#9CA7AB"/>
</linearGradient>
<clipPath id="clip0_5045_326">
<rect width="152" height="36" fill="white" transform="translate(0.799988)"/>
</clipPath>
</defs>
</svg>
