<svg width="154" height="36" viewBox="0 0 154 36" fill="none" xmlns="http://www.w3.org/2000/svg">
<g clip-path="url(#clip0_5045_303)">
<path d="M46.7498 25.747H57.5066V22.586H50.573V10.6797H46.7498V25.747Z" fill="#9CA7AB"/>
<path d="M63.8795 23.6398C62.3459 23.6398 61.5467 22.3332 61.5467 20.3734C61.5467 18.4136 62.3459 17.086 63.8795 17.086C65.4131 17.086 66.2339 18.4136 66.2339 20.3734C66.2339 22.3332 65.4131 23.6398 63.8795 23.6398ZM63.9011 26.0843C67.4651 26.0843 69.7979 23.6187 69.7979 20.3734C69.7979 17.1282 67.4651 14.6626 63.9011 14.6626C60.3587 14.6626 57.9827 17.1282 57.9827 20.3734C57.9827 23.6187 60.3587 26.0843 63.9011 26.0843Z" fill="#9CA7AB"/>
<path d="M75.9669 29.4771C77.6085 29.4771 79.0557 29.1189 80.0277 28.2759C80.9133 27.4962 81.4965 26.3161 81.4965 24.6935V14.9577H78.1269V16.1167H78.0837C77.4357 15.2106 76.4421 14.6416 74.9733 14.6416C72.2301 14.6416 70.3293 16.8754 70.3293 20.0363C70.3293 23.3448 72.6405 25.1571 75.1245 25.1571C76.4637 25.1571 77.3061 24.6303 77.9541 23.9138H78.0405V24.9885C78.0405 26.2951 77.4141 27.0537 75.9237 27.0537C74.7573 27.0537 74.1741 26.569 73.9797 26H70.5669C70.9125 28.2549 72.9213 29.4771 75.9669 29.4771ZM75.9453 22.6073C74.6277 22.6073 73.7637 21.5536 73.7637 19.931C73.7637 18.2873 74.6277 17.2336 75.9453 17.2336C77.4141 17.2336 78.1917 18.4558 78.1917 19.9099C78.1917 21.4272 77.4789 22.6073 75.9453 22.6073Z" fill="#9CA7AB"/>
<path d="M88.4251 23.6398C86.8915 23.6398 86.0923 22.3332 86.0923 20.3734C86.0923 18.4136 86.8915 17.086 88.4251 17.086C89.9587 17.086 90.7791 18.4136 90.7791 20.3734C90.7791 22.3332 89.9587 23.6398 88.4251 23.6398ZM88.4467 26.0843C92.0103 26.0843 94.3431 23.6187 94.3431 20.3734C94.3431 17.1282 92.0103 14.6626 88.4467 14.6626C84.9043 14.6626 82.5283 17.1282 82.5283 20.3734C82.5283 23.6187 84.9043 26.0843 88.4467 26.0843Z" fill="#9CA7AB"/>
<path d="M95.3718 25.747H98.8926V14.9575H95.3718V25.747ZM95.3718 13.4613H98.8926V10.6797H95.3718V13.4613Z" fill="#9CA7AB"/>
<path d="M100.42 29.3085H103.941V24.6303H103.984C104.675 25.5364 105.69 26.0843 107.116 26.0843C110.01 26.0843 111.933 23.8506 111.933 20.3524C111.933 17.1072 110.14 14.6416 107.202 14.6416C105.69 14.6416 104.61 15.2949 103.854 16.2642H103.79V14.9577H100.42V29.3085ZM106.209 23.4291C104.697 23.4291 103.833 22.2279 103.833 20.4789C103.833 18.7298 104.61 17.4022 106.144 17.4022C107.656 17.4022 108.369 18.6244 108.369 20.4789C108.369 22.3122 107.548 23.4291 106.209 23.4291Z" fill="#9CA7AB"/>
<path d="M117.665 26.0843C120.559 26.0843 122.698 24.8621 122.698 22.5019C122.698 19.7413 120.408 19.2566 118.464 18.9405C117.06 18.6877 115.807 18.5823 115.807 17.8237C115.807 17.1493 116.477 16.8332 117.341 16.8332C118.313 16.8332 118.982 17.1282 119.112 18.0976H122.352C122.179 15.9692 120.494 14.6416 117.362 14.6416C114.749 14.6416 112.589 15.8217 112.589 18.0976C112.589 20.6264 114.641 21.1321 116.563 21.4482C118.032 21.7011 119.371 21.8065 119.371 22.7758C119.371 23.4713 118.702 23.8506 117.643 23.8506C116.477 23.8506 115.742 23.3237 115.613 22.249H112.286C112.394 24.6303 114.425 26.0843 117.665 26.0843Z" fill="#9CA7AB"/>
<path d="M127.48 26.0631C129.014 26.0631 129.986 25.473 130.785 24.4194H130.85V25.747H134.219V14.9575H130.699V20.9844C130.699 22.2699 129.964 23.155 128.755 23.155C127.631 23.155 127.091 22.5017 127.091 21.3216V14.9575H123.592V22.0381C123.592 24.4404 124.931 26.0631 127.48 26.0631Z" fill="#9CA7AB"/>
<path d="M135.751 25.7472H139.272V19.6992C139.272 18.4137 139.92 17.5076 141.022 17.5076C142.08 17.5076 142.577 18.1819 142.577 19.3409V25.7472H146.098V19.6992C146.098 18.4137 146.724 17.5076 147.847 17.5076C148.906 17.5076 149.402 18.1819 149.402 19.3409V25.7472H152.923V18.7298C152.923 16.3064 151.67 14.6416 149.165 14.6416C147.739 14.6416 146.551 15.2317 145.687 16.5382H145.644C145.082 15.3792 143.981 14.6416 142.534 14.6416C140.935 14.6416 139.877 15.3792 139.186 16.496H139.121V14.9577H135.751V25.7472Z" fill="#9CA7AB"/>
<path fill-rule="evenodd" clip-rule="evenodd" d="M18.6913 35.4056C28.6325 35.4056 36.6913 27.5433 36.6913 17.8446C36.6913 8.146 28.6325 0.283691 18.6913 0.283691C8.75018 0.283691 0.691315 8.146 0.691315 17.8446C0.691315 27.5433 8.75018 35.4056 18.6913 35.4056ZM21.4696 13.8518C23.0039 12.3548 23.0039 9.92779 21.4696 8.43081C19.9352 6.93384 17.4475 6.93384 15.9131 8.43081C14.3788 9.92779 14.3788 12.3548 15.9131 13.8518L18.6913 16.5622L21.4696 13.8518ZM22.784 20.5552C24.3184 22.0522 26.8061 22.0522 28.3405 20.5552C29.8749 19.0582 29.8749 16.6312 28.3405 15.1342C26.8061 13.6373 24.3184 13.6373 22.784 15.1342L20.0058 17.8447L22.784 20.5552ZM21.4696 27.2585C23.0039 25.7616 23.0039 23.3345 21.4696 21.8376L18.6913 19.1271L15.9131 21.8376C14.3788 23.3345 14.3788 25.7616 15.9131 27.2585C17.4475 28.7555 19.9352 28.7555 21.4696 27.2585ZM9.04208 20.5552C7.50773 19.0582 7.50773 16.6312 9.04208 15.1342C10.5765 13.6373 13.0642 13.6373 14.5986 15.1342L17.3768 17.8447L14.5986 20.5552C13.0642 22.0522 10.5765 22.0522 9.04208 20.5552Z" fill="#9CA7AB"/>
<path fill-rule="evenodd" clip-rule="evenodd" d="M18.6913 35.4056C28.6325 35.4056 36.6913 27.5433 36.6913 17.8446C36.6913 8.146 28.6325 0.283691 18.6913 0.283691C8.75018 0.283691 0.691315 8.146 0.691315 17.8446C0.691315 27.5433 8.75018 35.4056 18.6913 35.4056ZM21.4696 13.8518C23.0039 12.3548 23.0039 9.92779 21.4696 8.43081C19.9352 6.93384 17.4475 6.93384 15.9131 8.43081C14.3788 9.92779 14.3788 12.3548 15.9131 13.8518L18.6913 16.5622L21.4696 13.8518ZM22.784 20.5552C24.3184 22.0522 26.8061 22.0522 28.3405 20.5552C29.8749 19.0582 29.8749 16.6312 28.3405 15.1342C26.8061 13.6373 24.3184 13.6373 22.784 15.1342L20.0058 17.8447L22.784 20.5552ZM21.4696 27.2585C23.0039 25.7616 23.0039 23.3345 21.4696 21.8376L18.6913 19.1271L15.9131 21.8376C14.3788 23.3345 14.3788 25.7616 15.9131 27.2585C17.4475 28.7555 19.9352 28.7555 21.4696 27.2585ZM9.04208 20.5552C7.50773 19.0582 7.50773 16.6312 9.04208 15.1342C10.5765 13.6373 13.0642 13.6373 14.5986 15.1342L17.3768 17.8447L14.5986 20.5552C13.0642 22.0522 10.5765 22.0522 9.04208 20.5552Z" fill="url(#paint0_linear_5045_303)"/>
</g>
<defs>
<linearGradient id="paint0_linear_5045_303" x1="18.6913" y1="0.283691" x2="18.6913" y2="35.4056" gradientUnits="userSpaceOnUse">
<stop stop-color="#E7ECEE"/>
<stop offset="1" stop-color="#9CA7AB"/>
</linearGradient>
<clipPath id="clip0_5045_303">
<rect width="153" height="36" fill="white" transform="translate(0.600006)"/>
</clipPath>
</defs>
</svg>
