<svg width="156" height="30" viewBox="0 0 156 30" fill="none" xmlns="http://www.w3.org/2000/svg">
<g clip-path="url(#clip0_5045_353)">
<path d="M10.5143 24.7945C7.50886 27.8837 2.41879 27.8713 0.997276 23.7542C0.718962 22.9481 0.496441 22.1193 0.332777 21.2736C-0.33546 17.8205 0.00750381 14.2414 1.3183 10.9887C2.62909 7.73607 4.84884 4.95596 7.69685 2.99998C10.5449 1.044 13.8933 -1.50812e-07 17.3185 0C20.7438 1.50812e-07 24.0921 1.044 26.9401 2.99998C29.7882 4.95596 32.0079 7.73607 33.3187 10.9888C34.6295 14.2414 34.9724 17.8205 34.3042 21.2736C34.1406 22.1193 33.918 22.9481 33.6396 23.7542C32.2181 27.8713 27.1281 27.8837 24.1226 24.7945L19.4833 20.0259C19.0401 19.5703 19.0858 18.819 19.2081 18.1871C19.2824 17.803 19.2443 17.4049 19.0984 17.043C18.9526 16.6811 18.7057 16.3718 18.3889 16.1543C18.072 15.9367 17.6996 15.8206 17.3185 15.8206C16.9375 15.8206 16.565 15.9367 16.2482 16.1543C15.9312 16.3718 15.6843 16.6811 15.5385 17.043C15.3927 17.4049 15.3545 17.803 15.4289 18.1871C15.5512 18.819 15.5969 19.5703 15.1536 20.0259L10.5143 24.7945Z" fill="url(#paint0_linear_5045_353)"/>
<path d="M48.7268 20.5209H53.382V23.3406H45.1731V8.34521H48.7268V20.5209Z" fill="#9CA7AB"/>
<path d="M59.7323 23.5112C58.5962 23.5112 57.571 23.262 56.6565 22.7636C55.756 22.2652 55.0424 21.5531 54.516 20.6275C54.0034 19.7018 53.747 18.6196 53.747 17.3806C53.747 16.1559 54.0102 15.0807 54.5367 14.155C55.0633 13.2152 55.7837 12.496 56.6981 11.9976C57.6125 11.4992 58.6378 11.25 59.7739 11.25C60.91 11.25 61.9352 11.4992 62.8496 11.9976C63.7641 12.496 64.4845 13.2152 65.0109 14.155C65.5374 15.0807 65.8007 16.1559 65.8007 17.3806C65.8007 18.6053 65.5305 19.6876 64.9902 20.6275C64.4637 21.5531 63.7364 22.2652 62.808 22.7636C61.8937 23.262 60.8684 23.5112 59.7323 23.5112ZM59.7323 20.3497C60.4112 20.3497 60.9861 20.0935 61.4573 19.5808C61.9422 19.0681 62.1846 18.3348 62.1846 17.3806C62.1846 16.4264 61.949 15.6931 61.478 15.1804C61.0208 14.6677 60.4527 14.4114 59.7739 14.4114C59.0811 14.4114 58.5061 14.6677 58.0489 15.1804C57.5917 15.6788 57.3631 16.4122 57.3631 17.3806C57.3631 18.3348 57.5848 19.0681 58.0282 19.5808C58.4854 20.0935 59.0535 20.3497 59.7323 20.3497Z" fill="#9CA7AB"/>
<path d="M71.4683 11.25C72.2858 11.25 72.9993 11.4209 73.6089 11.7627C74.2323 12.1044 74.7104 12.553 75.0429 13.1083V11.4209H78.5966V23.3189C78.5966 24.4154 78.3819 25.4052 77.9524 26.2881C77.5367 27.1853 76.8925 27.8973 76.0197 28.4242C75.1607 28.9511 74.0869 29.2146 72.7985 29.2146C71.0804 29.2146 69.688 28.7945 68.6212 27.9543C67.5544 27.1283 66.9447 26.0033 66.7923 24.5792H70.3046C70.4154 25.0349 70.6787 25.391 71.0943 25.6473C71.5099 25.9178 72.0226 26.0531 72.6322 26.0531C73.3665 26.0531 73.9483 25.8324 74.3779 25.391C74.8212 24.9637 75.0429 24.2731 75.0429 23.3189V21.6314C74.6965 22.1868 74.2186 22.6426 73.6089 22.9985C72.9993 23.3403 72.2858 23.5112 71.4683 23.5112C70.5124 23.5112 69.6464 23.262 68.8706 22.7636C68.0947 22.2509 67.4781 21.5317 67.021 20.6061C66.5777 19.6662 66.356 18.584 66.356 17.3592C66.356 16.1345 66.5777 15.0594 67.021 14.1337C67.4781 13.2081 68.0947 12.496 68.8706 11.9976C69.6464 11.4992 70.5124 11.25 71.4683 11.25ZM75.0429 17.3806C75.0429 16.4692 74.7935 15.75 74.2947 15.2231C73.8098 14.6963 73.214 14.4328 72.5075 14.4328C71.8009 14.4328 71.1982 14.6963 70.6994 15.2231C70.2145 15.7358 69.972 16.4479 69.972 17.3592C69.972 18.2706 70.2145 18.9969 70.6994 19.5381C71.1982 20.0649 71.8009 20.3284 72.5075 20.3284C73.214 20.3284 73.8098 20.0649 74.2947 19.5381C74.7935 19.0111 75.0429 18.292 75.0429 17.3806Z" fill="#9CA7AB"/>
<path d="M85.8229 23.5112C84.6868 23.5112 83.6615 23.262 82.7471 22.7636C81.8466 22.2652 81.133 21.5531 80.6065 20.6275C80.0939 19.7018 79.8376 18.6196 79.8376 17.3806C79.8376 16.1559 80.1008 15.0807 80.6273 14.155C81.1538 13.2152 81.8742 12.496 82.7886 11.9976C83.7031 11.4992 84.7283 11.25 85.8644 11.25C87.0005 11.25 88.0258 11.4992 88.9401 11.9976C89.8546 12.496 90.575 13.2152 91.1015 14.155C91.628 15.0807 91.8913 16.1559 91.8913 17.3806C91.8913 18.6053 91.6211 19.6876 91.0808 20.6275C90.5543 21.5531 89.8269 22.2652 88.8986 22.7636C87.9842 23.262 86.9589 23.5112 85.8229 23.5112ZM85.8229 20.3497C86.5017 20.3497 87.0767 20.0935 87.5478 19.5808C88.0327 19.0681 88.2752 18.3348 88.2752 17.3806C88.2752 16.4264 88.0396 15.6931 87.5686 15.1804C87.1113 14.6677 86.5433 14.4114 85.8644 14.4114C85.1717 14.4114 84.5967 14.6677 84.1395 15.1804C83.6823 15.6788 83.4537 16.4122 83.4537 17.3806C83.4537 18.3348 83.6754 19.0681 84.1187 19.5808C84.576 20.0935 85.144 20.3497 85.8229 20.3497Z" fill="#9CA7AB"/>
<path d="M94.9404 10.1823C94.3169 10.1823 93.8043 9.99712 93.4025 9.62687C93.0146 9.24238 92.8206 8.77243 92.8206 8.21705C92.8206 7.64742 93.0146 7.17748 93.4025 6.80721C93.8043 6.42272 94.3169 6.23047 94.9404 6.23047C95.55 6.23047 96.0488 6.42272 96.4367 6.80721C96.8385 7.17748 97.0394 7.64742 97.0394 8.21705C97.0394 8.77243 96.8385 9.24238 96.4367 9.62687C96.0488 9.99712 95.55 10.1823 94.9404 10.1823ZM96.7068 11.4212V23.3406H93.1531V11.4212H96.7068Z" fill="#9CA7AB"/>
<path d="M102.212 13.1083C102.558 12.553 103.037 12.1044 103.646 11.7627C104.256 11.4209 104.97 11.25 105.787 11.25C106.743 11.25 107.609 11.4992 108.385 11.9976C109.161 12.496 109.771 13.2081 110.214 14.1337C110.67 15.0594 110.9 16.1345 110.9 17.3592C110.9 18.584 110.67 19.6662 110.214 20.6061C109.771 21.5317 109.161 22.2509 108.385 22.7636C107.609 23.262 106.743 23.5112 105.787 23.5112C104.983 23.5112 104.27 23.3403 103.646 22.9985C103.037 22.6567 102.558 22.2153 102.212 21.6742V29.0223H98.6588V11.4209H102.212V13.1083ZM107.284 17.3592C107.284 16.4479 107.034 15.7358 106.535 15.2231C106.05 14.6963 105.448 14.4328 104.727 14.4328C104.021 14.4328 103.418 14.6963 102.919 15.2231C102.435 15.75 102.192 16.4692 102.192 17.3806C102.192 18.292 102.435 19.0111 102.919 19.5381C103.418 20.0649 104.021 20.3284 104.727 20.3284C105.434 20.3284 106.037 20.0649 106.535 19.5381C107.034 18.9969 107.284 18.2706 107.284 17.3592Z" fill="#9CA7AB"/>
<path d="M116.858 23.5112C115.847 23.5112 114.946 23.3332 114.156 22.9772C113.367 22.6211 112.743 22.137 112.286 21.5246C111.829 20.898 111.572 20.2002 111.517 19.4312H115.029C115.071 19.8442 115.258 20.1788 115.59 20.4352C115.923 20.6915 116.332 20.8197 116.817 20.8197C117.26 20.8197 117.599 20.7342 117.834 20.5633C118.084 20.3783 118.209 20.1432 118.209 19.8584C118.209 19.5167 118.036 19.2674 117.689 19.1108C117.343 18.9399 116.782 18.7549 116.006 18.5554C115.174 18.3561 114.482 18.1496 113.927 17.936C113.374 17.7082 112.896 17.3592 112.494 16.8893C112.092 16.4051 111.891 15.7571 111.891 14.9455C111.891 14.2619 112.071 13.6424 112.432 13.087C112.805 12.5174 113.346 12.0688 114.052 11.7413C114.773 11.4138 115.625 11.25 116.608 11.25C118.063 11.25 119.206 11.6202 120.037 12.3607C120.883 13.1013 121.368 14.0839 121.493 15.3086H118.209C118.153 14.8956 117.973 14.5681 117.668 14.3259C117.377 14.0839 116.99 13.9628 116.505 13.9628C116.089 13.9628 115.77 14.0483 115.549 14.2192C115.327 14.3758 115.217 14.5966 115.217 14.8813C115.217 15.2231 115.39 15.4795 115.736 15.6504C116.096 15.8213 116.65 15.9922 117.399 16.163C118.257 16.3909 118.957 16.6188 119.497 16.8466C120.037 17.0602 120.508 17.4161 120.91 17.9147C121.326 18.3988 121.541 19.0538 121.555 19.8799C121.555 20.5776 121.361 21.2042 120.972 21.7596C120.599 22.3008 120.052 22.728 119.331 23.0412C118.624 23.3546 117.8 23.5112 116.858 23.5112Z" fill="#9CA7AB"/>
<path d="M134.557 11.4209V23.3403H131.003V21.7169C130.642 22.2438 130.15 22.671 129.527 22.9985C128.917 23.3119 128.239 23.4685 127.49 23.4685C126.604 23.4685 125.821 23.2691 125.142 22.8703C124.463 22.4574 123.936 21.8664 123.563 21.0974C123.189 20.3284 123.001 19.4242 123.001 18.3845V11.4209H126.534V17.8932C126.534 18.6907 126.735 19.3102 127.137 19.7517C127.539 20.1931 128.079 20.4139 128.758 20.4139C129.451 20.4139 129.998 20.1931 130.4 19.7517C130.801 19.3102 131.003 18.6907 131.003 17.8932V11.4209H134.557Z" fill="#9CA7AB"/>
<path d="M151.283 11.293C152.723 11.293 153.866 11.7415 154.712 12.6387C155.57 13.5358 156 14.7819 156 16.3768V23.3406H152.467V16.8682C152.467 16.0992 152.266 15.5082 151.864 15.0952C151.476 14.668 150.937 14.4543 150.243 14.4543C149.551 14.4543 149.003 14.668 148.602 15.0952C148.214 15.5082 148.02 16.0992 148.02 16.8682V23.3406H144.486V16.8682C144.486 16.0992 144.286 15.5082 143.884 15.0952C143.496 14.668 142.955 14.4543 142.263 14.4543C141.571 14.4543 141.023 14.668 140.621 15.0952C140.233 15.5082 140.04 16.0992 140.04 16.8682V23.3406H136.486V11.4211H140.04V12.9164C140.4 12.418 140.871 12.0263 141.453 11.7415C142.034 11.4425 142.693 11.293 143.426 11.293C144.3 11.293 145.076 11.4852 145.754 11.8697C146.447 12.2542 146.987 12.8025 147.376 13.5145C147.777 12.8594 148.325 12.3254 149.017 11.9124C149.71 11.4995 150.466 11.293 151.283 11.293Z" fill="#9CA7AB"/>
</g>
<defs>
<linearGradient id="paint0_linear_5045_353" x1="17.3185" y1="0" x2="17.3185" y2="26.9912" gradientUnits="userSpaceOnUse">
<stop stop-color="#E7ECEE"/>
<stop offset="1" stop-color="#9CA7AB"/>
</linearGradient>
<clipPath id="clip0_5045_353">
<rect width="156" height="30" fill="white"/>
</clipPath>
</defs>
</svg>
