<svg width="164" height="18" viewBox="0 0 164 18" fill="none" xmlns="http://www.w3.org/2000/svg">
<path d="M4.99353 17.7605L0 0.239544H3.44709L6.635 13.115H6.79915L10.203 0.239544H13.3391L16.7516 13.1236H16.9072L20.0951 0.239544H23.5422L18.5486 17.7605H15.3866L11.8445 5.46673H11.7063L8.15552 17.7605H4.99353Z" fill="#1F2C33"/>
<path d="M27.2243 17.7605V0.239544H33.8593C35.2186 0.239544 36.359 0.490494 37.2805 0.992396C38.2078 1.4943 38.9076 2.18441 39.3798 3.06274C39.8579 3.93536 40.0969 4.92776 40.0969 6.03993C40.0969 7.1635 39.8579 8.1616 39.3798 9.03422C38.9018 9.90684 38.1963 10.5941 37.2632 11.096C36.3302 11.5922 35.1811 11.8403 33.8161 11.8403H29.4187V9.23099H33.3842C34.179 9.23099 34.8298 9.09411 35.3366 8.82034C35.8435 8.54658 36.2179 8.17015 36.4598 7.69107C36.7074 7.21198 36.8313 6.6616 36.8313 6.03993C36.8313 5.41825 36.7074 4.87072 36.4598 4.39734C36.2179 3.92396 35.8406 3.55608 35.328 3.29373C34.8212 3.02567 34.1675 2.89164 33.3669 2.89164H30.4295V17.7605H27.2243Z" fill="#1F2C33"/>
<path d="M46.7078 0.239544L51.3126 14.0304H51.494L56.0901 0.239544H59.615L53.3774 17.7605H49.4206L43.1916 0.239544H46.7078Z" fill="#1F2C33"/>
<path d="M94.0315 0.239544V17.7605H91.1805L82.8436 5.82605H82.6967V17.7605H79.4915V0.239544H82.3598L90.6881 12.1825H90.8436V0.239544H94.0315Z" fill="#1F2C33"/>
<path d="M98.2061 2.90019V0.239544H112.323V2.90019H106.854V17.7605H103.675V2.90019H98.2061Z" fill="#1F2C33"/>
<path d="M144.452 5.8346C144.308 5.37262 144.109 4.95913 143.856 4.59411C143.608 4.22338 143.308 3.90684 142.957 3.64449C142.612 3.38213 142.214 3.18536 141.765 3.05418C141.316 2.9173 140.826 2.84886 140.296 2.84886C139.346 2.84886 138.499 3.08555 137.756 3.55894C137.013 4.03232 136.429 4.72814 136.002 5.64639C135.582 6.55894 135.372 7.6711 135.372 8.98289C135.372 10.3061 135.582 11.4268 136.002 12.3451C136.423 13.2633 137.008 13.962 137.756 14.4411C138.505 14.9145 139.375 15.1511 140.365 15.1511C141.264 15.1511 142.041 14.98 142.698 14.6378C143.36 14.2956 143.87 13.8108 144.227 13.1835C144.584 12.5504 144.763 11.8089 144.763 10.9591L145.488 11.0703H140.685V8.58935H147.864V10.6939C147.864 12.1939 147.542 13.4914 146.897 14.5865C146.252 15.6816 145.365 16.5257 144.236 17.1188C143.107 17.7063 141.811 18 140.348 18C138.718 18 137.287 17.6378 136.054 16.9135C134.828 16.1835 133.869 15.1483 133.177 13.808C132.492 12.462 132.149 10.865 132.149 9.01711C132.149 7.60266 132.351 6.33935 132.754 5.22719C133.163 4.11502 133.733 3.1711 134.465 2.39544C135.196 1.61407 136.054 1.02091 137.039 0.61597C138.024 0.205323 139.095 0 140.253 0C141.232 0 142.145 0.142586 142.992 0.427757C143.838 0.707224 144.59 1.10646 145.247 1.62548C145.909 2.14449 146.453 2.76046 146.879 3.47338C147.306 4.18631 147.585 4.97339 147.717 5.8346H144.452Z" fill="#1F2C33"/>
<path d="M152.423 17.7605V0.239544H163.931V2.90019H155.629V7.65685H163.335V10.3175H155.629V15.0998H164V17.7605H152.423Z" fill="#1F2C33"/>
<path d="M62.9508 17.7606L67.5555 3.96972H67.7369L72.3331 17.7606H75.8579L69.6203 0.239677H65.6635L59.4346 17.7606H62.9508Z" fill="#1F2C33"/>
<path d="M116.676 17.7606L121.281 3.96972H121.462L126.058 17.7606H129.583L123.345 0.239677H119.389L113.16 17.7606H116.676Z" fill="#1F2C33"/>
</svg>
