<svg width="154" height="36" viewBox="0 0 154 36" fill="none" xmlns="http://www.w3.org/2000/svg">
<path d="M1.0788 26.6984L1.0788 8.89941L10.4727 13.8436V21.8037L17.9879 25.8085L25.503 21.8037V13.8436L34.897 8.89941V26.6984L17.9879 35.5979L1.0788 26.6984Z" fill="url(#paint0_linear_5045_314)"/>
<path fill-rule="evenodd" clip-rule="evenodd" d="M5.77577 11.3716L1.0788 8.89952L17.9879 0L34.897 8.89952L30.2 11.3716V24.4737L17.9879 31.1483L5.77576 24.4737L5.77577 11.3716ZM29.6912 11.6395L25.503 13.8437V13.7943L17.9879 9.78944L10.4727 13.7943V13.8437L6.2846 11.6395V24.1999L17.9879 30.5964L29.6912 24.1999V11.6395Z" fill="#E7ECEE"/>
<path d="M43.9001 25.292V10.3408H46.8761V22.7289H54.0907V25.292H43.9001Z" fill="#9CA7AB"/>
<path d="M60.5159 25.5909C59.4037 25.5909 58.4042 25.3774 57.5174 24.9501C56.6306 24.523 55.9317 23.9036 55.4207 23.092C54.9096 22.2804 54.6541 21.305 54.6541 20.1658V19.824C54.6541 18.6849 54.9096 17.7095 55.4207 16.8979C55.9317 16.0863 56.6306 15.4669 57.5174 15.0397C58.4042 14.6125 59.4037 14.3989 60.5159 14.3989C61.6282 14.3989 62.6277 14.6125 63.5145 15.0397C64.4013 15.4669 65.1002 16.0863 65.6112 16.8979C66.1222 17.7095 66.3778 18.6849 66.3778 19.824V20.1658C66.3778 21.305 66.1222 22.2804 65.6112 23.092C65.1002 23.9036 64.4013 24.523 63.5145 24.9501C62.6277 25.3774 61.6282 25.5909 60.5159 25.5909ZM60.5159 23.1987C61.3877 23.1987 62.1092 22.9354 62.6803 22.4085C63.2515 21.8674 63.537 21.0984 63.537 20.1017V19.8882C63.537 18.8914 63.2515 18.1296 62.6803 17.6027C62.1242 17.0617 61.4027 16.7911 60.5159 16.7911C59.6442 16.7911 58.9227 17.0617 58.3516 17.6027C57.7804 18.1296 57.4949 18.8914 57.4949 19.8882V20.1017C57.4949 21.0984 57.7804 21.8674 58.3516 22.4085C58.9227 22.9354 59.6442 23.1987 60.5159 23.1987Z" fill="#9CA7AB"/>
<path d="M67.4443 20.0377V19.6959C67.4443 18.5853 67.6772 17.6384 68.1432 16.8552C68.6091 16.0578 69.2254 15.4526 69.9919 15.0397C70.7735 14.6125 71.6227 14.3989 72.5395 14.3989C73.5616 14.3989 74.3357 14.5698 74.8617 14.9115C75.3878 15.2533 75.7711 15.6093 76.0115 15.9795H76.4174V14.6979H79.213V27.1715C79.213 27.8977 78.9875 28.4744 78.5366 28.9016C78.0857 29.343 77.4845 29.5637 76.733 29.5637H69.2479V27.2143H75.741C76.1618 27.2143 76.3723 27.0006 76.3723 26.5735V23.8181H75.9664C75.8161 24.046 75.6057 24.2809 75.3352 24.523C75.0646 24.7508 74.7039 24.943 74.253 25.0997C73.8021 25.2563 73.2309 25.3347 72.5395 25.3347C71.6227 25.3347 70.7735 25.1282 69.9919 24.7152C69.2254 24.288 68.6091 23.6829 68.1432 22.8998C67.6772 22.1024 67.4443 21.1484 67.4443 20.0377ZM73.3512 22.9852C74.2229 22.9852 74.9519 22.7217 75.5381 22.1949C76.1243 21.6681 76.4174 20.9276 76.4174 19.9736V19.76C76.4174 18.7917 76.1243 18.0513 75.5381 17.5387C74.9669 17.0119 74.238 16.7484 73.3512 16.7484C72.4794 16.7484 71.7504 17.0119 71.1643 17.5387C70.5781 18.0513 70.285 18.7917 70.285 19.76V19.9736C70.285 20.9276 70.5781 21.6681 71.1643 22.1949C71.7504 22.7217 72.4794 22.9852 73.3512 22.9852Z" fill="#9CA7AB"/>
<path d="M86.6687 25.5909C85.5564 25.5909 84.5569 25.3774 83.6701 24.9501C82.7833 24.523 82.0844 23.9036 81.5734 23.092C81.0624 22.2804 80.8069 21.305 80.8069 20.1658V19.824C80.8069 18.6849 81.0624 17.7095 81.5734 16.8979C82.0844 16.0863 82.7833 15.4669 83.6701 15.0397C84.5569 14.6125 85.5564 14.3989 86.6687 14.3989C87.7809 14.3989 88.7804 14.6125 89.6672 15.0397C90.554 15.4669 91.2529 16.0863 91.7639 16.8979C92.275 17.7095 92.5305 18.6849 92.5305 19.824V20.1658C92.5305 21.305 92.275 22.2804 91.7639 23.092C91.2529 23.9036 90.554 24.523 89.6672 24.9501C88.7804 25.3774 87.7809 25.5909 86.6687 25.5909ZM86.6687 23.1987C87.5404 23.1987 88.2619 22.9354 88.833 22.4085C89.4042 21.8674 89.6898 21.0984 89.6898 20.1017V19.8882C89.6898 18.8914 89.4042 18.1296 88.833 17.6027C88.2769 17.0617 87.5555 16.7911 86.6687 16.7911C85.7969 16.7911 85.0755 17.0617 84.5043 17.6027C83.9332 18.1296 83.6476 18.8914 83.6476 19.8882V20.1017C83.6476 21.0984 83.9332 21.8674 84.5043 22.4085C85.0755 22.9354 85.7969 23.1987 86.6687 23.1987Z" fill="#9CA7AB"/>
<path d="M94.1381 25.2918V14.6977H96.9788V25.2918H94.1381ZM95.5584 13.4589C95.0474 13.4589 94.6115 13.3023 94.2508 12.9891C93.9051 12.6758 93.7323 12.2628 93.7323 11.7503C93.7323 11.2377 93.9051 10.8247 94.2508 10.5114C94.6115 10.1982 95.0474 10.0415 95.5584 10.0415C96.0845 10.0415 96.5204 10.1982 96.8661 10.5114C97.2118 10.8247 97.3846 11.2377 97.3846 11.7503C97.3846 12.2628 97.2118 12.6758 96.8661 12.9891C96.5204 13.3023 96.0845 13.4589 95.5584 13.4589Z" fill="#9CA7AB"/>
<path d="M99.1122 29.5637V14.6979H101.908V15.9795H102.314C102.569 15.5666 102.967 15.2034 103.509 14.8901C104.05 14.5626 104.824 14.3989 105.831 14.3989C106.733 14.3989 107.567 14.6125 108.333 15.0397C109.1 15.4526 109.716 16.0649 110.182 16.8766C110.648 17.6882 110.881 18.6707 110.881 19.824V20.1658C110.881 21.3192 110.648 22.3017 110.182 23.1133C109.716 23.925 109.1 24.5444 108.333 24.9716C107.567 25.3845 106.733 25.5909 105.831 25.5909C105.154 25.5909 104.583 25.5126 104.117 25.356C103.666 25.2136 103.298 25.0285 103.013 24.8007C102.742 24.5586 102.524 24.3165 102.359 24.0745H101.953V29.5637H99.1122ZM104.974 23.2415C105.861 23.2415 106.59 22.978 107.161 22.4512C107.747 21.9101 108.04 21.1269 108.04 20.1017V19.8882C108.04 18.8629 107.747 18.0868 107.161 17.56C106.575 17.019 105.846 16.7484 104.974 16.7484C104.102 16.7484 103.373 17.019 102.787 17.56C102.201 18.0868 101.908 18.8629 101.908 19.8882V20.1017C101.908 21.1269 102.201 21.9101 102.787 22.4512C103.373 22.978 104.102 23.2415 104.974 23.2415Z" fill="#9CA7AB"/>
<path d="M117.119 25.5909C115.661 25.5909 114.466 25.292 113.534 24.6939C112.603 24.0958 112.039 23.2415 111.843 22.1308L114.459 21.4901C114.564 21.9884 114.737 22.38 114.977 22.6648C115.233 22.9496 115.541 23.156 115.902 23.2842C116.277 23.3981 116.683 23.4551 117.119 23.4551C117.78 23.4551 118.269 23.3482 118.585 23.1347C118.9 22.9069 119.058 22.6292 119.058 22.3017C119.058 21.9742 118.908 21.725 118.607 21.5541C118.307 21.369 117.826 21.2195 117.164 21.1056L116.533 20.9988C115.751 20.8564 115.037 20.6642 114.391 20.4221C113.745 20.1658 113.226 19.8169 112.835 19.3755C112.445 18.9341 112.249 18.3645 112.249 17.6668C112.249 16.6131 112.655 15.8086 113.467 15.2533C114.278 14.6837 115.346 14.3989 116.668 14.3989C117.916 14.3989 118.953 14.6624 119.779 15.1892C120.606 15.7161 121.147 16.4067 121.403 17.261L118.765 18.0299C118.645 17.4889 118.397 17.1043 118.021 16.8766C117.66 16.6487 117.209 16.5348 116.668 16.5348C116.127 16.5348 115.714 16.6273 115.428 16.8124C115.143 16.9833 115 17.2254 115 17.5387C115 17.8804 115.15 18.1367 115.451 18.3076C115.751 18.4642 116.157 18.5853 116.668 18.6707L117.299 18.7775C118.141 18.9199 118.9 19.1121 119.577 19.3541C120.268 19.582 120.809 19.9166 121.2 20.3581C121.606 20.7852 121.809 21.369 121.809 22.1095C121.809 23.2202 121.38 24.0816 120.523 24.6939C119.682 25.292 118.547 25.5909 117.119 25.5909Z" fill="#9CA7AB"/>
<path d="M127.544 25.4626C126.673 25.4626 125.906 25.2775 125.245 24.9074C124.599 24.5228 124.095 23.996 123.734 23.3268C123.374 22.6575 123.193 21.8886 123.193 21.02V14.6978H126.034V20.8064C126.034 21.6038 126.237 22.2019 126.643 22.6005C127.063 22.9993 127.657 23.1986 128.424 23.1986C129.295 23.1986 129.972 22.928 130.453 22.387C130.934 21.8316 131.174 21.0627 131.174 20.0802V14.6978H134.015V25.2918H131.219V23.9034H130.814C130.633 24.2594 130.295 24.6083 129.799 24.95C129.303 25.2918 128.551 25.4626 127.544 25.4626Z" fill="#9CA7AB"/>
<path d="M136.162 25.2917V14.6977H138.957V15.8511H139.363C139.558 15.4951 139.882 15.189 140.332 14.9326C140.783 14.6621 141.377 14.5269 142.114 14.5269C142.91 14.5269 143.549 14.6764 144.03 14.9753C144.511 15.2601 144.879 15.6375 145.135 16.1074H145.54C145.796 15.6518 146.157 15.2744 146.623 14.9753C147.089 14.6764 147.75 14.5269 148.607 14.5269C149.298 14.5269 149.922 14.6692 150.478 14.954C151.049 15.2245 151.5 15.6446 151.831 16.2142C152.176 16.7695 152.349 17.4743 152.349 18.3287V25.2917H149.508V18.521C149.508 17.9371 149.351 17.5028 149.035 17.218C148.719 16.9191 148.276 16.7695 147.705 16.7695C147.059 16.7695 146.555 16.9689 146.194 17.3675C145.849 17.752 145.676 18.3073 145.676 19.0336V25.2917H142.835V18.521C142.835 17.9371 142.677 17.5028 142.362 17.218C142.046 16.9191 141.603 16.7695 141.031 16.7695C140.385 16.7695 139.882 16.9689 139.521 17.3675C139.175 17.752 139.002 18.3073 139.002 19.0336V25.2917H136.162Z" fill="#9CA7AB"/>
<defs>
<linearGradient id="paint0_linear_5045_314" x1="17.9879" y1="8.89941" x2="17.9879" y2="35.5979" gradientUnits="userSpaceOnUse">
<stop stop-color="#E7ECEE"/>
<stop offset="1" stop-color="#9CA7AB"/>
</linearGradient>
</defs>
</svg>
