<svg width="153" height="36" viewBox="0 0 153 36" fill="none" xmlns="http://www.w3.org/2000/svg">
<path d="M46.6741 24.7065H57.4309V21.5455H50.4973V9.63916H46.6741V24.7065Z" fill="#9CA7AB"/>
<path d="M63.8039 22.5992C62.2703 22.5992 61.4711 21.2927 61.4711 19.3329C61.4711 17.3731 62.2703 16.0455 63.8039 16.0455C65.3375 16.0455 66.1583 17.3731 66.1583 19.3329C66.1583 21.2927 65.3375 22.5992 63.8039 22.5992ZM63.8255 25.0437C67.3895 25.0437 69.7223 22.5782 69.7223 19.3329C69.7223 16.0876 67.3895 13.6221 63.8255 13.6221C60.2831 13.6221 57.9071 16.0876 57.9071 19.3329C57.9071 22.5782 60.2831 25.0437 63.8255 25.0437Z" fill="#9CA7AB"/>
<path d="M75.8913 28.4366C77.5329 28.4366 78.9801 28.0783 79.9521 27.2354C80.8377 26.4557 81.4209 25.2756 81.4209 23.653V13.9172H78.0513V15.0762H78.0081C77.3601 14.1701 76.3665 13.6011 74.8977 13.6011C72.1545 13.6011 70.2537 15.8348 70.2537 18.9958C70.2537 22.3043 72.5649 24.1166 75.0489 24.1166C76.3881 24.1166 77.2305 23.5898 77.8785 22.8733H77.9649V23.948C77.9649 25.2545 77.3385 26.0132 75.8481 26.0132C74.6817 26.0132 74.0985 25.5285 73.9041 24.9595H70.4913C70.8369 27.2143 72.8457 28.4366 75.8913 28.4366ZM75.8697 21.5667C74.5521 21.5667 73.6881 20.5131 73.6881 18.8904C73.6881 17.2467 74.5521 16.1931 75.8697 16.1931C77.3385 16.1931 78.1161 17.4153 78.1161 18.8694C78.1161 20.3866 77.4033 21.5667 75.8697 21.5667Z" fill="#9CA7AB"/>
<path d="M88.3494 22.5992C86.8158 22.5992 86.0166 21.2927 86.0166 19.3329C86.0166 17.3731 86.8158 16.0455 88.3494 16.0455C89.883 16.0455 90.7038 17.3731 90.7038 19.3329C90.7038 21.2927 89.883 22.5992 88.3494 22.5992ZM88.371 25.0437C91.935 25.0437 94.2678 22.5782 94.2678 19.3329C94.2678 16.0876 91.935 13.6221 88.371 13.6221C84.8286 13.6221 82.4526 16.0876 82.4526 19.3329C82.4526 22.5782 84.8286 25.0437 88.371 25.0437Z" fill="#9CA7AB"/>
<path d="M95.2956 24.7065H98.8164V13.917H95.2956V24.7065ZM95.2956 12.4208H98.8164V9.63916H95.2956V12.4208Z" fill="#9CA7AB"/>
<path d="M100.345 28.268H103.865V23.5898H103.909C104.6 24.4959 105.615 25.0438 107.041 25.0438C109.935 25.0438 111.857 22.8101 111.857 19.3119C111.857 16.0666 110.065 13.6011 107.127 13.6011C105.615 13.6011 104.535 14.2543 103.779 15.2237H103.714V13.9172H100.345V28.268ZM106.133 22.3886C104.621 22.3886 103.757 21.1874 103.757 19.4383C103.757 17.6893 104.535 16.3617 106.069 16.3617C107.581 16.3617 108.293 17.5839 108.293 19.4383C108.293 21.2717 107.473 22.3886 106.133 22.3886Z" fill="#9CA7AB"/>
<path d="M117.589 25.0438C120.484 25.0438 122.622 23.8216 122.622 21.4614C122.622 18.7008 120.333 18.2161 118.389 17.9C116.985 17.6471 115.732 17.5418 115.732 16.7831C115.732 16.1088 116.401 15.7927 117.265 15.7927C118.237 15.7927 118.907 16.0877 119.037 17.0571H122.277C122.104 14.9287 120.419 13.6011 117.287 13.6011C114.673 13.6011 112.513 14.7812 112.513 17.0571C112.513 19.5859 114.565 20.0916 116.488 20.4077C117.957 20.6606 119.296 20.766 119.296 21.7353C119.296 22.4307 118.626 22.8101 117.568 22.8101C116.401 22.8101 115.667 22.2832 115.537 21.2085H112.211C112.319 23.5898 114.349 25.0438 117.589 25.0438Z" fill="#9CA7AB"/>
<path d="M127.405 25.0226C128.939 25.0226 129.911 24.4325 130.71 23.3788H130.774V24.7065H134.144V13.917H130.623V19.9439C130.623 21.2294 129.889 22.1145 128.679 22.1145C127.556 22.1145 127.016 21.4612 127.016 20.2811V13.917H123.517V20.9976C123.517 23.3999 124.856 25.0226 127.405 25.0226Z" fill="#9CA7AB"/>
<path d="M135.675 24.7066H139.196V18.6586C139.196 17.3732 139.844 16.467 140.945 16.467C142.004 16.467 142.501 17.1414 142.501 18.3004V24.7066H146.021V18.6586C146.021 17.3732 146.648 16.467 147.771 16.467C148.829 16.467 149.326 17.1414 149.326 18.3004V24.7066H152.847V17.6893C152.847 15.2659 151.594 13.6011 149.089 13.6011C147.663 13.6011 146.475 14.1911 145.611 15.4977H145.568C145.006 14.3386 143.905 13.6011 142.457 13.6011C140.859 13.6011 139.801 14.3386 139.109 15.4555H139.045V13.9172H135.675V24.7066Z" fill="#9CA7AB"/>
<path fill-rule="evenodd" clip-rule="evenodd" d="M18.6157 35.243C28.5568 35.243 36.6157 27.3807 36.6157 17.682C36.6157 7.98341 28.5568 0.121094 18.6157 0.121094C8.67452 0.121094 0.615662 7.98341 0.615662 17.682C0.615662 27.3807 8.67452 35.243 18.6157 35.243ZM24.231 8.30173C24.5044 7.3545 23.5622 6.79438 22.7017 7.39248L10.6895 15.7412C9.75626 16.3898 9.90305 17.682 10.91 17.682H14.0731V17.6582H20.2379L15.2148 19.3873L13.0003 27.0624C12.727 28.0096 13.6691 28.5698 14.5297 27.9716L26.5419 19.623C27.4751 18.9744 27.3282 17.682 26.3214 17.682H21.5246L24.231 8.30173Z" fill="url(#paint0_linear_5045_292)"/>
<defs>
<linearGradient id="paint0_linear_5045_292" x1="18.6157" y1="0.121094" x2="18.6157" y2="35.243" gradientUnits="userSpaceOnUse">
<stop stop-color="#E7ECEE"/>
<stop offset="1" stop-color="#9CA7AB"/>
</linearGradient>
</defs>
</svg>
